<?xml version="1.0" encoding="utf-8"?>
<!-- Generator: Adobe Illustrator 26.4.1, SVG Export Plug-In . SVG Version: 6.00 Build 0)  -->
<svg version="1.1" id="Layer_1" xmlns="http://www.w3.org/2000/svg" xmlns:xlink="http://www.w3.org/1999/xlink" x="0px" y="0px"
	 viewBox="0 0 1000 623" style="enable-background:new 0 0 1000 623;" xml:space="preserve">
<style type="text/css">
	.st0{fill:#334036;}
	.st1{display:none;fill:#334036;}
</style>
<g transform="translate(-.60606 .25223)">
	<g transform="translate(.24 -.1)">
		<g transform="translate(39.552 101.13)">
			<g>
				<path class="st0" d="M56.6,155.9h22.5c8.5,0,15.3,1.8,20.2,5.3c4.9,3.5,7.4,8.9,7.4,16.2c0,4.7-1.1,8.7-3.2,12.1
					c-2.1,3.4-5.1,6-8.9,7.8c-3.8,1.8-8.2,2.9-13.4,3.1l-1.9-6.7c6,0.2,11.3,1.2,16,3.1c4.7,1.9,8.4,4.6,11.2,8
					c2.8,3.4,4.1,7.5,4.1,12.2c0,4.3-0.8,8-2.4,11.1c-1.6,3.1-3.7,5.6-6.4,7.5c-2.7,1.9-5.7,3.3-9.1,4.2c-3.4,0.9-6.9,1.4-10.6,1.4
					H56.6C56.6,241.1,56.6,155.9,56.6,155.9z M69,192.8h12.2c4.4,0,7.5-1.3,9.6-3.8c2-2.5,3-5.5,3-8.9c0-4.2-1.3-7.3-3.9-9.2
					c-2.6-1.9-6.1-2.9-10.3-2.9H69C69,168,69,192.8,69,192.8z M69,229.5h12.7c3,0,5.8-0.5,8.2-1.4c2.4-0.9,4.4-2.3,5.8-4.1
					c1.4-1.8,2.1-4.2,2.1-7c0-3.1-0.8-5.6-2.5-7.3c-1.7-1.8-3.8-3-6.4-3.8c-2.6-0.7-5.3-1.1-8.1-1.1H69C69,204.9,69,229.5,69,229.5z
					 M149.6,242.3c-5.7,0-10.5-1.1-14.6-3.4c-4-2.2-7.1-5.3-9.3-9.3c-2.2-3.9-3.3-8.5-3.3-13.5c0-4.9,1.2-9.3,3.7-13.2
					c2.5-3.9,5.8-7.1,9.9-9.4c4.2-2.3,8.8-3.5,13.8-3.5c6.5,0,11.9,1.9,16.2,5.8c4.3,3.8,7.2,9.2,8.7,16.1L135,225.7l-2.8-7
					l31.8-11.5l-2.4,1.5c-0.9-2.4-2.4-4.6-4.4-6.4c-2-1.8-4.8-2.8-8.3-2.8c-2.8,0-5.3,0.7-7.5,2c-2.2,1.4-4,3.3-5.2,5.6
					c-1.3,2.4-1.9,5.2-1.9,8.4c0,3.3,0.7,6.2,2,8.6c1.4,2.5,3.2,4.4,5.6,5.8c2.4,1.4,5,2.1,8,2.1c2.1,0,4.1-0.4,6-1.2
					c1.9-0.8,3.7-1.8,5.4-2.9l5.5,8.9c-2.6,1.6-5.3,2.9-8.3,3.9C155.4,241.8,152.4,242.3,149.6,242.3z M208.4,242.3
					c-4.6,0-8.7-1-12.5-2.9c-3.7-1.9-6.7-4.8-8.9-8.6c-2.2-3.8-3.2-8.6-3.2-14.2c0-5.6,1.1-10.3,3.4-14.3c2.3-4,5.3-7.1,9.1-9.2
					c3.8-2.1,7.9-3.2,12.3-3.2c4.7,0,8.5,1,11.5,3c3,2,5.4,4.3,7.1,7l-0.8,1.9l1.2-9.7h11.1v49.2h-12v-12.3l1.3,2.9
					c-0.3,0.6-0.9,1.5-2,2.6c-1,1.1-2.4,2.3-4,3.6s-3.6,2.3-5.8,3.1C213.8,241.9,211.3,242.3,208.4,242.3z M211.7,232.5
					c2.6,0,4.8-0.5,6.9-1.4c2-0.9,3.8-2.3,5.2-4s2.4-3.8,2.9-6.1v-10.2c-0.6-2.2-1.7-4.1-3.1-5.7c-1.5-1.6-3.2-2.9-5.3-3.8
					c-2.1-0.9-4.3-1.4-6.8-1.4c-2.8,0-5.4,0.7-7.7,2c-2.3,1.4-4.2,3.3-5.6,5.7c-1.4,2.4-2.1,5.2-2.1,8.4c0,3.1,0.7,5.8,2.2,8.3
					c1.4,2.5,3.4,4.5,5.8,5.9C206.3,231.7,208.9,232.5,211.7,232.5z M272.6,243.1c-4.5,0-8.2-1.4-11.1-4.1s-4.4-6.3-4.5-10.6V192h12
					v32.2c0.2,2.5,0.9,4.6,2.2,6.1c1.3,1.6,3.3,2.5,6.2,2.5c2.6,0,5-0.8,7.1-2.4c2.1-1.6,3.7-3.8,4.9-6.6c1.2-2.8,1.8-6,1.8-9.6V192
					h12v49.2h-10.8l-0.9-11.4l0.5,1.9c-1,2.2-2.4,4.2-4.3,5.9c-1.9,1.8-4.1,3.1-6.6,4.1C278.3,242.7,275.5,243.1,272.6,243.1
					L272.6,243.1z M326.2,192.1v-21.7h12v21.7h13.1v9.5h-13.1v39.5h-12v-39.5h-8.6v-9.5H326.2L326.2,192.1z M380,264.7h-11.8
					l32.3-72.8h11L380,264.7z M389.8,235.4l-9.2,6.1L357,192h13.5L389.8,235.4L389.8,235.4z M490,241.1h-27.6v-85.2h23.5
					c8.4,0,15.5,1.3,21.4,3.9c5.9,2.6,10.7,6,14.3,10.2c3.6,4.2,6.2,8.9,7.9,14.1c1.7,5.2,2.5,10.4,2.5,15.6c0,6.3-1.1,12-3.4,17.1
					c-2.3,5.1-5.3,9.4-9.2,13.1c-3.9,3.6-8.4,6.4-13.4,8.3C501.1,240.2,495.7,241.1,490,241.1L490,241.1z M474.9,168v61h12.8
					c4.6,0,8.8-0.7,12.7-2c3.8-1.3,7.2-3.3,10-5.9c2.8-2.6,5-5.8,6.6-9.5c1.6-3.8,2.3-8.1,2.3-12.9c0-5.2-0.9-9.8-2.6-13.7
					c-1.8-3.9-4.1-7.1-6.9-9.6c-2.9-2.5-6.1-4.4-9.6-5.6c-3.5-1.2-7.1-1.8-10.8-1.8H474.9L474.9,168z M547.9,241.1V192h12v49.2
					H547.9z M547.2,174.4c0-1.9,0.7-3.4,2.2-4.7s3.1-1.9,4.8-1.9c1.8,0,3.4,0.6,4.8,1.9c1.4,1.3,2.1,2.8,2.1,4.7
					c0,1.9-0.7,3.4-2.1,4.6c-1.4,1.2-3,1.8-4.8,1.8c-1.7,0-3.3-0.6-4.8-1.8C548,177.8,547.2,176.3,547.2,174.4z M598.6,242.3
					c-4.6,0-8.7-1-12.5-2.9c-3.7-1.9-6.7-4.8-8.9-8.6c-2.2-3.8-3.3-8.6-3.3-14.2c0-5.6,1.1-10.3,3.4-14.3c2.3-4,5.3-7.1,9.1-9.2
					c3.8-2.1,7.9-3.2,12.3-3.2c4.7,0,8.5,1,11.5,3c3,2,5.4,4.3,7.1,7l-0.8,1.9l1.2-9.7h11.1v49.2h-12v-12.3l1.3,2.9
					c-0.3,0.6-1,1.5-2,2.6c-1,1.1-2.4,2.3-4,3.6c-1.7,1.3-3.6,2.3-5.8,3.1C604,241.9,601.5,242.3,598.6,242.3L598.6,242.3z
					 M601.9,232.5c2.6,0,4.9-0.5,6.9-1.4c2-0.9,3.7-2.3,5.1-4s2.4-3.8,2.9-6.1v-10.2c-0.6-2.2-1.7-4.1-3.1-5.7
					c-1.5-1.6-3.2-2.9-5.3-3.8c-2.1-0.9-4.3-1.4-6.8-1.4c-2.8,0-5.4,0.7-7.7,2c-2.3,1.4-4.2,3.3-5.6,5.7c-1.4,2.4-2.1,5.2-2.1,8.4
					c0,3.1,0.7,5.8,2.1,8.3c1.4,2.5,3.4,4.5,5.8,5.9C596.5,231.7,599.1,232.5,601.9,232.5z M647.2,192h10.7l1.2,14.1l-0.6-1.9
					c1.3-3,3.2-5.5,5.6-7.6c2.4-2.1,4.9-3.7,7.5-4.9c2.6-1.1,4.8-1.7,6.6-1.7l-0.6,12c-3.7-0.2-7,0.5-9.7,2.1
					c-2.8,1.6-4.9,3.8-6.5,6.6s-2.3,5.7-2.3,8.8v21.7h-11.9V192z M691.8,241.1V192h12v49.2H691.8z M691.1,174.4
					c0-1.9,0.7-3.4,2.2-4.7c1.5-1.3,3.1-1.9,4.8-1.9c1.8,0,3.4,0.6,4.8,1.9c1.4,1.3,2.1,2.8,2.1,4.7s-0.7,3.4-2.1,4.6
					c-1.4,1.2-3,1.8-4.8,1.8c-1.7,0-3.3-0.6-4.8-1.8C691.9,177.8,691.1,176.3,691.1,174.4z M745.1,242.3c-5.7,0-10.5-1.1-14.6-3.4
					c-4-2.2-7.1-5.3-9.3-9.3c-2.2-3.9-3.3-8.5-3.3-13.5c0-4.9,1.2-9.3,3.7-13.2c2.4-3.9,5.7-7.1,9.9-9.4c4.1-2.3,8.7-3.5,13.8-3.5
					c6.5,0,11.9,1.9,16.3,5.8c4.3,3.8,7.2,9.2,8.7,16.1l-39.7,13.8l-2.8-7l31.8-11.5l-2.4,1.5c-0.9-2.4-2.4-4.6-4.4-6.4
					c-2-1.8-4.8-2.8-8.3-2.8c-2.8,0-5.3,0.7-7.5,2c-2.2,1.4-4,3.3-5.2,5.6c-1.3,2.4-1.9,5.2-1.9,8.4c0,3.3,0.7,6.2,2.1,8.6
					c1.4,2.5,3.2,4.4,5.6,5.8c2.4,1.4,5,2.1,8,2.1c2.1,0,4.1-0.4,6-1.2c1.9-0.8,3.7-1.8,5.4-2.9l5.5,8.9c-2.6,1.6-5.3,2.9-8.3,3.9
					C750.9,241.8,748,242.3,745.1,242.3L745.1,242.3z M797.8,242.2c-3.6,0-7-0.6-10.4-1.9c-3.3-1.3-6.1-3.2-8.3-5.7l5.1-6.8
					c2.1,2,4.2,3.4,6.3,4.4c2.1,1,4.2,1.5,6.1,1.5c1.6,0,3-0.2,4.2-0.5c1.2-0.3,2.3-0.9,3-1.8c0.8-0.9,1.2-2,1.2-3.4
					c0-1.6-0.5-2.9-1.6-3.9c-1.1-0.9-2.5-1.7-4.2-2.3c-1.7-0.6-3.5-1.2-5.5-1.8c-4.1-1.3-7.2-3.2-9.3-5.7c-2.1-2.5-3.1-5.4-3.1-8.7
					c0-2.6,0.6-5,1.9-7.3c1.3-2.3,3.3-4.2,5.9-5.7c2.6-1.5,5.9-2.2,9.8-2.2c3.6,0,6.7,0.4,9.4,1.2c2.7,0.8,5.2,2.2,7.6,4.2l-4.7,7.3
					c-1.4-1.4-3.1-2.5-5-3.2c-1.9-0.7-3.6-1.1-5.2-1.2c-1.4,0-2.7,0.2-3.8,0.6c-1.2,0.4-2.1,1.1-2.8,1.9c-0.7,0.8-1,1.8-1,2.9
					c-0.1,1.6,0.4,2.8,1.6,3.8c1.1,1,2.6,1.8,4.4,2.3c1.8,0.6,3.5,1.2,5.2,1.8c2.4,0.7,4.5,1.7,6.4,2.9c1.9,1.2,3.3,2.7,4.4,4.4
					c1.1,1.7,1.6,3.9,1.6,6.6c0,2.9-0.7,5.6-2.1,8.1c-1.4,2.6-3.5,4.6-6.4,6.1C805.7,241.4,802.1,242.2,797.8,242.2z"/>
			</g>
		</g>
		<g>
			<g transform="matrix(.50247 0 0 .50247 119.05 1)">
				<g>
					<path class="st0" d="M711.1,742.8c164.2,0,297.8-160.5,297.8-357.8c0-197.3-133.6-357.8-297.8-357.8
						c-164.2,0-297.8,160.5-297.8,357.8C413.3,582.3,546.9,742.8,711.1,742.8z M711.1,46.6c153.6,0,278.6,151.8,278.6,338.4
						c0,186.6-125,338.4-278.6,338.4c-153.6,0-278.6-151.8-278.6-338.4C432.6,198.4,557.5,46.6,711.1,46.6z"/>
					<path class="st0" d="M711.1,680.2c135.6,0,246-132.4,246-295.2S846.8,89.8,711.1,89.8s-246,132.4-246,295.2
						S575.5,680.2,711.1,680.2z M711.1,109.2c125,0,226.7,123.7,226.7,275.8c0,152.1-101.7,275.8-226.7,275.8
						c-125,0-226.7-123.7-226.7-275.8S586.1,109.2,711.1,109.2z"/>
					<path class="st0" d="M1087.7,385c0-5.3-4.3-9.7-9.6-9.7h-40.9c-5.3,0-9.6,4.3-9.6,9.7c0,5.3,4.3,9.7,9.6,9.7h31.1
						c-4.3,234.6-162.9,423.9-357.2,423.9c-194.4,0-353-189.3-357.3-423.9h31.2c5.3,0,9.6-4.3,9.6-9.7c0-5.3-4.3-9.7-9.6-9.7h-40.9
						h0c0,0,0,0,0,0c-5.3,0-9.6,4.3-9.6,9.7c0,245.9,163.8,446.7,367,452.8v351.3H591.9c-5.3,0-9.6,4.3-9.6,9.7s4.3,9.7,9.6,9.7
						h238.5c5.3,0,9.6-4.3,9.6-9.7s-4.3-9.7-9.6-9.7H720.8V837.8C924,831.7,1087.7,630.9,1087.7,385L1087.7,385z"/>
					<path class="st0" d="M678.8,392.8c2.6,0,5.2-1,7.1-3.1l94.4-102.6c3.6-3.9,3.4-10-0.5-13.7c-3.9-3.6-10-3.4-13.6,0.5
						l-94.4,102.6c-3.6,3.9-3.4,10,0.5,13.7C674.1,391.9,676.5,392.8,678.8,392.8L678.8,392.8z"/>
					<path class="st0" d="M649,499.3c2.6,0,5.2-1,7.1-3.1l94.4-102.7c3.6-3.9,3.4-10.1-0.5-13.7c-3.9-3.6-10-3.4-13.6,0.5L642,483
						c-3.6,3.9-3.4,10.1,0.5,13.7C644.4,498.4,646.7,499.3,649,499.3L649,499.3z"/>
				</g>
			</g>
		</g>
		<rect x="1" y="12.3" class="st1" width="950.8" height="598.4"/>
	</g>
</g>
</svg>
