<?xml version="1.0" encoding="utf-8"?>
<!-- Generator: Adobe Illustrator 26.4.1, SVG Export Plug-In . SVG Version: 6.00 Build 0)  -->
<svg version="1.1" id="Layer_1" xmlns="http://www.w3.org/2000/svg" xmlns:xlink="http://www.w3.org/1999/xlink" x="0px" y="0px"
	 viewBox="0 0 1000 176" style="enable-background:new 0 0 1000 176;" xml:space="preserve">
<style type="text/css">
	.st0{fill:#334036;}
	.st1{display:none;fill:#334036;}
</style>
<g transform="translate(-.60606 -.55737)">
	<g transform="translate(.24 .22168)">
		<g transform="translate(0 16.095)">
			<path class="st0" d="M2.5,89.5c0-1.5,0.1-2.6,0.2-3.4c0.1-0.8,0.6-1.6,1.5-2.5c0.9-0.8,2.2-1.2,3.9-1.2c0.2,0,0.7,0.1,1.4,0.2
				C9,75.8,8.7,69.4,8.7,63.3c0-11.1,0.5-20.3,1.4-27.6c-1.6,0-3.6-0.2-6-0.5c-0.4-0.6-0.7-2.8-0.7-6.6s0.1-5.9,0.3-6.4
				c2.2-1.8,6.6-2.7,13.2-2.7c2,0,4.5,0.1,7.5,0.4c0.3,0.9,0.4,2.4,0.4,4.4c2-1.2,4.7-2.3,8-3.3s6.2-1.4,8.8-1.4
				c5.6,0,10.3,2.3,14,6.8c3.7,4.6,5.6,9.7,5.6,15.5c0,6.8-2.7,12.6-8,17.4c7.4,4.2,11.1,10.3,11.1,18.1c0,5.5-1.9,10.3-5.7,14.4
				c-3.8,4.1-8.5,6.1-13.9,6.1c-11,0-18.1-1.5-21.4-4.5c0,1.9-0.5,3-1.5,3.5c-1,0.4-3.4,0.6-7.1,0.6c-4.2,0-8.1-0.4-11.6-1.3
				C2.8,93.6,2.5,91.4,2.5,89.5z M24.3,83.7c0,0.4,2,1,6,1.8c4,0.8,6.7,1.2,8,1.2c2.3,0,4.3-1,6-3.1c1.6-2.1,2.4-4.6,2.4-7.6
				c0-3-0.6-5.7-1.7-8.2c-1.2-2.5-3-3.7-5.5-3.7c-2.3,0-5.2,0.5-9,1.5c-3.7,1-5.6,2-5.7,2.9c-0.1,0.7-0.1,1.7-0.2,2.9
				c0,1.2-0.1,3-0.2,5.4C24.4,79.1,24.3,81.4,24.3,83.7z M24.3,50.9c0,0.4,2,1,6,1.8c4,0.8,6.7,1.2,8,1.2c2.3,0,4.3-1,6-3.1
				c1.6-2.1,2.4-4.6,2.4-7.6c0-3-0.6-5.7-1.7-8.2c-1.2-2.5-3-3.7-5.5-3.7c-2.3,0-5.2,0.5-9,1.5c-3.7,1-5.6,2-5.7,2.9
				c-0.1,0.7-0.1,1.7-0.2,2.9c0,1.2-0.1,3-0.2,5.4C24.4,46.4,24.3,48.7,24.3,50.9z M72.2,73.9c0-8.2,3-15.8,8.9-22.6
				C87,44.4,93.7,41,101,41c4.5,0,8.4,1.4,11.6,4.1c3.2,2.8,4.8,6.4,4.8,10.8c0,5.2-2.1,9.6-6.4,13.3c-4.3,3.7-9.9,5.5-16.9,5.5
				c-4,0-6.8-0.6-8.4-1.9c0.1,3.5,1.3,6.3,3.7,8.3c2.4,2.1,5.2,3.1,8.3,3.1c4.1,0,7.4-1.6,9.9-4.8c0-0.6,0.1-1.2,0.3-1.9
				c3.2-2.6,6.7-3.9,10.4-3.9c0.7,0,1.3,0,1.6,0.1c4.8,2.6,7.8,6.9,8.8,12.9c-0.1,0.6-0.3,1.2-0.8,1.9c-0.5,0.7-1,1.2-1.5,1.7
				c-0.5,0.5-1.2,1-2.2,1.6c-0.9,0.6-1.7,1.1-2.2,1.4c-0.5,0.3-1.3,0.7-2.4,1.3c-1,0.6-1.6,0.9-1.8,1c-0.4,0-0.8-0.1-1.1-0.2
				c-0.3-0.1-0.6-0.3-0.8-0.5c-0.2-0.2-0.4-0.4-0.5-0.5c-0.1-0.1-0.2-0.4-0.4-0.9c-0.2-0.5-0.4-0.7-0.4-0.8
				c-5.4,3.6-11.2,5.3-17.4,5.3c-6.9,0-12.8-2.2-17.8-6.7C74.7,86.9,72.2,81.1,72.2,73.9z M89.2,61.1c0,2.4,1.7,3.6,5.2,3.6
				c2.6,0,5.1-0.6,7.5-1.9c2.4-1.2,3.6-2.8,3.6-4.6c0-1.2-0.4-2.5-1.3-3.9c-0.8-1.3-2.2-2-4-2c-2.3,0-4.7,0.9-7.3,2.7
				C90.5,56.9,89.2,58.9,89.2,61.1z M133.6,74.1c0-5.2,0.8-10.3,2.3-15.2c1.6-4.9,4.1-9.2,7.5-12.7c3.5-3.6,7.5-5.3,12.2-5.3
				c2.1,0,4,0.4,5.6,1.1c1.6,0.7,2.9,1.6,3.8,2.7c0.9,1.1,1.7,2.1,2.2,3.2c0.6,1.1,1,2,1.2,2.7c0.2,0.7,0.4,1.1,0.4,1.1
				c0-3.9,0-6.5-0.1-7.8c1.5-1.2,3-2.1,4.5-2.5c1.6-0.4,3.7-0.6,6.5-0.6c2.2,0,4.1,0.1,5.8,0.2c1.7,0.1,3,0.3,3.9,0.5
				c0.9,0.2,1.6,0.4,2.1,0.7c0.6,0.2,0.9,0.4,1,0.4l0.2,0.1c0.3,0.7,0.4,2.7,0.4,6.1c0,3.5-0.1,5.6-0.4,6.2c-0.2,0.5-1.4,1-3.5,1.4
				c-2.1,0.4-3.9,0.6-5.5,0.6c-0.7,0-1.5-0.1-2.4-0.2c0.2,0.4,0.3,2.3,0.3,5.6c0,9.5-0.3,14.8-1,15.8c0.5-0.2,1.1-0.3,1.9-0.3
				c3.2,0,6.3,0.3,9.4,1c0.6,0.4,0.9,3.5,0.9,9.3c0,3.2-0.1,5.2-0.3,6.1c-0.5,0.8-2.1,1.6-4.8,2.3s-5.8,1.1-9.2,1.1
				c-6.2,0-10-0.1-11.5-0.4c-0.5-1.4-0.8-2.5-0.8-3.5c0-0.6,0.1-1,0.3-1.3c-0.9,0.3-3.3,1.4-7.4,3.3c-4.1,1.9-7,2.8-8.8,2.8
				c-5.6,0-9.8-2.4-12.7-7.1C135,86.6,133.6,80.9,133.6,74.1L133.6,74.1z M147.2,71.2c0,4.1,1.3,7.5,3.8,10.3
				c2.5,2.8,5.2,4.2,7.9,4.2c1.5,0,3.3-0.4,5.2-1.2c2-0.8,3-1.5,3.2-2.2c0.2-3.3,0.4-6.4,0.6-9.2c0.2-2.8,0.3-4.9,0.4-6.4
				c0.1-1.5,0.2-2.4,0.2-2.9v-1.3c0-1.5-1-3-3-4.5c-2-1.5-4.2-2.2-6.7-2.2c-3.6,0-6.5,1.7-8.5,5C148.2,64,147.2,67.5,147.2,71.2
				L147.2,71.2z M200.2,53.6c0-5,0.4-8.1,1.1-9.3c5.5-1.5,10.2-2.2,14.2-2.2c2.8,0,6.1,0.7,9.8,2c0.5,0.4,1.1,1.7,1.6,3.9
				c0.6,2.2,0.9,4.1,0.9,5.7c0,2.4-0.7,4.5-2,6.2c-0.8,0.5-1.9,0.8-3.2,0.8c-1,0-2-0.2-2.9-0.5c0,0.2,0,1.2,0,2.8
				c0,1.7-0.1,2.7-0.1,3.2c0,4.6,1.3,8.6,3.8,12.1c2.5,3.5,5.6,5.2,9.4,5.2c3.3,0,6.3-1.3,9-4c2.7-2.6,4.1-6.8,4.1-12.5
				c0-2-0.1-4.7-0.3-8c-0.9,0.5-2,0.8-3.4,0.8c-1.3,0-2.1-0.2-2.4-0.5c-0.7,0-1.1-1.5-1.1-4.4c0-0.7,0.4-3.6,1.1-9
				c5.2-2.5,12-3.8,20.3-3.8c6.3,0,10.3,1.1,12,3.2c0.7,0.9,1,2.4,1,4.6c0,4.5-1,7.3-2.9,8.4c-2.6,0.7-4.8,1-6.6,1
				c-1,0-1.9-0.1-2.6-0.2c0,2.1,0.1,5.5,0.2,10.2c0.1,4.7,0.2,8.3,0.2,10.7c0.3,0,1.5-0.1,3.6-0.3c2.1-0.2,3.3-0.3,3.7-0.3
				c0.3,0,0.7,0.1,1.3,0.2c0.6,0.1,1,0.2,1.3,0.2c0.3,0.3,0.4,1.1,0.4,2.3c0,2-0.3,4.4-0.9,7.4c-0.6,3-1.1,4.8-1.6,5.4
				c-2.2,1.3-6.3,2-12.4,2c-3.9,0-6.6-0.3-7.9-0.8c-1.3-0.5-2-1.6-2-3.4c0-2.2,0.2-4.4,0.5-6.6c-6.8,7.9-14.2,11.8-22.2,11.8
				c-12.5,0-18.8-8.8-18.8-26.4c0-3.5,0.2-6.9,0.7-10.3c-0.1,0.1-0.4,0.1-1,0.1c-1.1,0-2.8-0.2-5.1-0.5
				C200.6,59.9,200.2,57.6,200.2,53.6L200.2,53.6z M278.2,44.8c0-1.6,0.2-2.6,0.7-3.1c1.3-0.2,3-0.3,5.1-0.3h2.4V20.9
				c3.8-0.3,6.2-0.4,7.3-0.4s3.3,0.1,6.7,0.4l1.1,20.7c8,0.4,12.6,0.9,13.8,1.5c1.1,1.9,1.6,4.8,1.6,8.7c0,1.6-0.2,2.6-0.7,3.1
				c-2.3,0.3-4.8,0.4-7.8,0.4c-0.9,0-2.4,0-4.3-0.1c-1.9,0-3.3,0-4.3,0c0,2.4,0,5.4,0,9.1c0,3.6-0.1,6.2-0.1,7.8
				c0,5.7,0.4,9.1,1.2,10.4c0.8,1.3,2.8,1.9,6.3,1.9c1.3,0,2.4-0.1,3.3-0.2l-0.7-2.3l10-2.3c0.7,2.1,1.1,4.6,1.1,7.4
				c0,4.7-0.5,7.7-1.4,9c-7.1,1-13.1,1.5-17.8,1.5c-6.2,0-10.3-0.9-12.2-2.6c-0.9-0.8-1.6-1.9-2.1-3.2c-0.5-1.3-0.9-3.2-1-5.6
				c-0.2-2.4-0.3-4.9-0.4-7.3c-0.1-2.4-0.2-6-0.3-10.6c-0.1-4.7-0.3-9.1-0.5-13.2c-2.3-0.2-4.1-0.7-5.3-1.4
				C278.7,51.7,278.2,48.8,278.2,44.8L278.2,44.8z M323,118.4c0-3.2,0.4-6.7,1.2-10.4c0.8-3.8,1.8-6.3,3-7.6c0.9-0.4,2-0.7,3.2-0.7
				c2.8,0,5.5,0.9,8.1,2.6c0.3,0.2,0.4,0.7,0.4,1.4c0,0.4-0.1,1.1-0.3,2c2.8,2,5.4,3.4,7.8,4c2.4,0.7,5.6,1,9.5,1
				c2.8,0,5.3-0.2,7.2-0.5c2-0.3,4-1,6.1-1.9c2.1-0.9,3.7-2.4,4.8-4.5c1.1-2.1,1.6-4.8,1.6-8c0-2.7-0.3-5-0.8-6.9
				c-6.2,5.2-12.7,7.8-19.4,7.8c-7.1,0-12.9-2.9-17.3-8.6c-4.4-5.7-6.6-13-6.6-21.8c0-2.4,0.2-4.5,0.7-6.4c-0.4,0.2-0.9,0.3-1.5,0.3
				s-1.5-0.1-2.6-0.4c-1.2-0.3-1.8-0.4-2-0.4c-0.9-2-1.4-4.5-1.4-7.6c0-3.3,0.5-5.9,1.5-7.6c5.7-1.4,10.3-2.1,14-2.1
				c4.4,0,8.4,0.6,11.9,1.9c1.7,2.2,2.6,4.8,2.6,8c0,2.7-0.7,4.9-2.1,6.8c-0.7,0.4-1.5,0.7-2.3,0.7c-0.7,0-1.5-0.2-2.6-0.5
				c-0.9,2.6-1.3,5.3-1.3,8.2c0,9.7,3.9,14.5,11.6,14.5c4.5,0,8.4-1.6,11.6-4.8c3.2-3.2,4.8-7.2,4.8-12.1c0-1.7-0.3-3.7-0.9-5.8
				c-1,0.6-2.3,0.9-3.9,0.9c-0.9,0-1.6-0.2-1.9-0.7c-1.2-0.8-1.9-3-1.9-6.6c0-3.7,0.6-6,1.9-6.8c1.6-2.5,5.9-3.8,12.9-3.8
				c3.3,0,6.7,0.3,10.2,0.9c3.5,0.6,5.8,1.2,7.1,1.7c0.3,1.9,0.4,3.7,0.4,5.5c0,3.2-0.4,5.4-1.3,6.6c-0.7,0.7-1.5,1-2.4,1
				c-0.5,0-1-0.1-1.5-0.2c-0.5-0.1-1-0.3-1.6-0.5s-1-0.4-1.2-0.4c0.4,12.2,0.7,19.2,0.7,21c0,7.6-0.5,14.1-1.4,19.5
				c-0.9,5.5-2.2,9.9-3.9,13.4c-1.7,3.5-3.9,6.2-6.6,8.2c-2.7,2-5.6,3.4-8.8,4.2c-3.1,0.8-6.9,1.1-11.2,1.1
				c-8.4,0-15.9-1.7-22.7-5.1c-0.7,2.4-1.1,3.6-1.2,3.6c-1.2,1-3.1,1.5-5.5,1.5c-1.5,0-2.9-0.2-4.2-0.6c-1.3-0.4-2.1-0.8-2.2-1.3
				C323.1,121.2,323,119.9,323,118.4L323,118.4z"/>
		</g>
		<path class="st0" d="M487.1,175.2c7.5,0,13.8-5.5,14.9-12.8c9.8,8.1,20.2,12.3,20.9,12.6c0.3,0.1,0.5,0.2,0.8,0.2
			c0.3,0,0.6-0.1,0.8-0.2c1.3-0.5,31.5-13.5,36.8-37.9c3.1-14.5-5-24.8-13.8-28.3c-9-3.6-18.3-0.6-24.5,7.4
			c-5.8-7.3-14.3-10.2-22.6-7.6c1.5-5.1,6.2-8.8,11.7-8.8h8.2c7.8,0,14.2-6.4,14.2-14.2V16.5c0-8.9-7.3-16.2-16.2-16.2h-62.7
			c-8.9,0-16.2,7.3-16.2,16.2v69.1c0,7.8,6.4,14.2,14.2,14.2h8.2c6.7,0,12.2,5.5,12.2,12.1l-2.2,48.2
			C472,168.4,478.8,175.2,487.1,175.2L487.1,175.2z M521.3,121.2c0.4,0.6,1.1,1.1,1.9,1c0.8,0,1.5-0.4,1.9-1.1
			c5.9-9.9,14.7-10.8,20.9-8.3c7.2,2.8,13.8,11.3,11.2,23.3c-4.3,20-28.6,32.2-33.4,34.4c-4.8-2.1-29.4-13.7-34.2-33.6
			c-2.9-11.9,3.5-20.6,10.6-23.6c1.9-0.8,4.1-1.3,6.4-1.3C511.6,112.1,517.1,114.5,521.3,121.2z M462,95.4h-8.2
			c-5.4,0-9.8-4.4-9.8-9.8V16.5c0-6.5,5.3-11.8,11.8-11.8h62.7c6.5,0,11.8,5.3,11.8,11.8v69.1c0,5.4-4.4,9.8-9.8,9.8h-8.2
			c-8.7,0-15.9,6.8-16.5,15.4c-7.6,4.6-13.5,14.3-10.4,27.2c2,8.3,6.9,15.2,12.5,20.7v1.4c0,5.9-4.8,10.7-10.7,10.7
			c-5.9,0-10.7-4.8-10.8-10.6l2.2-48.2C478.6,102.9,471.1,95.4,462,95.4z"/>
		<path class="st0" d="M523.5,80.2V19.1c0-4.5-3.7-8.1-8.1-8.1h-56.5c-4.5,0-8.1,3.7-8.1,8.1v61.1c0,4.5,3.7,8.1,8.1,8.1h56.5
			C519.9,88.4,523.5,84.7,523.5,80.2z M455.1,80.2V19.1c0-2.1,1.7-3.8,3.8-3.8h56.5c2.1,0,3.8,1.7,3.8,3.8v61.1
			c0,2.1-1.7,3.8-3.8,3.8h-56.5C456.8,84,455.1,82.3,455.1,80.2z"/>
		<path class="st0" d="M507.1,60.3L496,71.4c-0.9,0.9-0.9,2.2,0,3.1c0.4,0.4,1,0.6,1.5,0.6s1.1-0.2,1.5-0.6l11.1-11.1
			c0.9-0.9,0.9-2.2,0-3.1C509.3,59.4,508,59.4,507.1,60.3z"/>
		<path class="st0" d="M508.9,47.1c-0.9-0.9-2.2-0.9-3.1,0l-19.5,19.5c-0.9,0.9-0.9,2.2,0,3.1c0.4,0.4,1,0.6,1.5,0.6
			c0.6,0,1.1-0.2,1.5-0.6l19.5-19.5C509.7,49.3,509.7,47.9,508.9,47.1z"/>
		<g transform="translate(275.17 14.496)">
			<path class="st0" d="M328.2,31.3c0-1.6,0.3-2.8,1-3.6c6.9-3.9,14.6-5.9,22.9-5.9c7.6,0,14.3,1,20,3.1c5.7,2,10.3,4.9,13.8,8.7
				c3.5,3.8,6,8.1,7.7,13c1.7,4.9,2.5,10.4,2.5,16.6c0,12.1-3.3,21.1-10,27.2s-17.3,9.1-31.7,9.1c-8.5,0-16.7-1.5-24.5-4.6
				c-0.7-0.7-1.1-3.2-1.1-7.5c0-2.4,0.1-4,0.3-4.7c0.2-1.1,1.7-1.6,4.6-1.6c0.8,0,1.7,0.1,2.7,0.2c-0.7-5.1-1.1-11.9-1.1-20.3
				c0-7.5,0.4-14.4,1.3-20.7c-0.8,0.2-1.8,0.3-2.9,0.3c-2.8,0-4.4-0.5-4.6-1.6C328.6,36,328.2,33.5,328.2,31.3z M352.1,83.8
				c2.1,0.7,4.4,1.1,6.9,1.1c6,0,11.3-2.1,15.7-6.3c4.4-4.2,6.6-9.6,6.6-16.2c0-6.8-2.2-12.8-6.6-18.2c-4.4-5.4-9.6-8.1-15.7-8.1
				c-2.5,0-4.8,0.5-6.9,1.5c0.7,6.6,1,14,1,22.4C353.1,69.9,352.8,77.9,352.1,83.8z M403.9,89.2c0-3.7,0.2-5.8,0.7-6.3
				c0.9-0.5,2-0.8,3.3-1c0.9-0.1,2.8-0.2,5.7-0.2c-0.4-4.6-0.7-9.6-0.7-15c0-5.9,0.4-9.6,1.1-11.2c-3.6,0-5.9-0.1-7.1-0.4
				c0.1-2,0.3-4,0.8-6.2c0.1-0.9,0.6-2.8,1.3-5.6c2.7-0.5,7.2-0.8,13.5-0.8c2.5,0,4.9,0.1,7,0.4c2.2,0.3,3.8,0.6,4.9,1
				c1.1,0.4,1.7,0.8,1.7,1.2c0.1,0,0.2,1.3,0.2,3.9c0,4.1-0.4,6.8-1.1,7.9c-0.3,0.4-1.2,0.7-2.6,0.7c-2.7,0-4.4-0.2-5.1-0.5
				c-0.8,5.1-1.2,11.7-1.2,19.9c0,3.3,0.1,5.1,0.3,5.2c0.4-0.1,1.1-0.1,1.9-0.1c2.6,0,4.7,0.4,6.3,1.2c0.2,0.3,0.3,0.9,0.3,2
				c0,1.8-0.3,4-0.8,6.6s-1.2,4.3-2.2,5.2c-0.9,0.9-3.7,1.3-8.5,1.3c-11.4,0-17.8-1.1-19-3.2C404.1,94.2,403.9,92.2,403.9,89.2z
				 M412.6,21.2c0-2,1.1-3.1,3.3-3.1c1.8,0,3.8,0.5,5.9,1.6c1.5-1.5,3.6-2.3,6.1-2.3c1.6,0,3,0.5,4.3,1.6c1.2,1.1,1.9,2.6,1.9,4.5
				c0,0.9-0.2,1.9-0.6,2.7c-0.4,0.9-0.8,1.6-1.2,2.2c-0.4,0.6-1.2,1.3-2.2,2c-1,0.8-1.8,1.3-2.4,1.6c-0.5,0.3-1.5,0.9-2.9,1.6
				c-1.4,0.8-2.3,1.3-2.6,1.5c-2.8-2.1-5.1-4.5-6.9-7.2C413.5,25.5,412.6,23.2,412.6,21.2z M443.7,75.7c0-5.2,0.8-10.3,2.3-15.2
				c1.6-4.9,4.1-9.2,7.5-12.7c3.5-3.6,7.5-5.3,12.2-5.3c2.1,0,4,0.4,5.6,1.1c1.6,0.7,2.9,1.6,3.8,2.7c0.9,1.1,1.7,2.1,2.2,3.2
				c0.6,1.1,1,2,1.2,2.7c0.2,0.7,0.4,1.1,0.4,1.1c0-3.9,0-6.5-0.1-7.8c1.5-1.2,3-2.1,4.5-2.5c1.6-0.4,3.7-0.6,6.5-0.6
				c2.2,0,4.1,0.1,5.8,0.2c1.7,0.1,3,0.3,3.9,0.5c0.9,0.2,1.6,0.4,2.1,0.7c0.6,0.2,0.9,0.4,1,0.4l0.2,0.1c0.3,0.7,0.4,2.7,0.4,6.1
				c0,3.5-0.1,5.6-0.4,6.2c-0.2,0.5-1.4,1-3.5,1.4c-2.1,0.4-3.9,0.6-5.5,0.6c-0.7,0-1.5-0.1-2.4-0.2c0.2,0.4,0.3,2.3,0.3,5.6
				c0,9.5-0.3,14.8-1,15.8c0.5-0.2,1.1-0.3,1.9-0.3c3.2,0,6.3,0.3,9.4,1c0.6,0.4,0.9,3.5,0.9,9.3c0,3.2-0.1,5.2-0.3,6.1
				c-0.5,0.8-2.1,1.6-4.8,2.3c-2.7,0.7-5.8,1.1-9.2,1.1c-6.2,0-10-0.1-11.5-0.4c-0.5-1.4-0.8-2.5-0.8-3.5c0-0.6,0.1-1,0.3-1.3
				c-0.9,0.3-3.3,1.4-7.4,3.3c-4.1,1.9-7,2.8-8.8,2.8c-5.6,0-9.8-2.4-12.7-7.1C445.2,88.2,443.7,82.5,443.7,75.7L443.7,75.7z
				 M457.4,72.8c0,4.1,1.3,7.5,3.8,10.3c2.5,2.8,5.2,4.2,7.9,4.2c1.5,0,3.3-0.4,5.2-1.2s3-1.5,3.2-2.2c0.2-3.3,0.4-6.4,0.6-9.2
				c0.2-2.8,0.3-4.9,0.4-6.4c0.1-1.5,0.2-2.4,0.2-2.9v-1.3c0-1.5-1-3-3-4.5c-2-1.5-4.2-2.2-6.7-2.2c-3.6,0-6.5,1.7-8.5,5
				C458.4,65.6,457.4,69.1,457.4,72.8L457.4,72.8z M512.3,50.6c0-3,0.2-5.1,0.7-6.3c4.1-1.2,8.2-1.9,12.1-1.9c4.7,0,8.4,1,10.9,2.9
				c-0.1,1.2-0.1,3.1-0.1,5.6l0.4-0.9c0.2-0.6,0.6-1.3,1.3-2.1c0.6-0.8,1.4-1.7,2.2-2.5c0.9-0.8,2.1-1.5,3.7-2.1
				c1.6-0.6,3.4-0.9,5.3-0.9c5.5,0,10.2,2.4,14.1,7.1c-0.5,3.2-1.8,5.6-3.8,7.3s-4.1,2.6-6.1,2.7c-2.7-1.9-5.3-2.8-7.8-2.8
				c-7.2,0-10.8,4.6-10.8,13.8c0,3.1,0.4,6.6,1.2,10.3c0.1-0.4,1.2-0.5,3.1-0.5c2.2,0,3.5,0.3,4,0.8c0.9,1.4,1.3,3.6,1.3,6.8
				c0,4.7-0.8,7.8-2.5,9.3c-3.7,0.8-8.2,1.2-13.4,1.2c-8.6,0-13.6-0.8-15-2.4c-0.2-0.9-0.3-3.1-0.3-6.7c0-5.1,0.2-7.8,0.7-8.2
				c0.5-0.7,1.9-1,4.3-1c1.7,0,2.9,0.3,3.7,0.8c-0.7-1.7-1-7.3-1-16.9c0-3.2,0.1-5,0.3-5.5c-0.9,0.1-1.7,0.2-2.4,0.2
				c-2.6,0-4.4-0.7-5.5-2C512.5,55.5,512.3,53.5,512.3,50.6L512.3,50.6z M567.3,89.2c0-3.7,0.2-5.8,0.7-6.3c0.9-0.5,2-0.8,3.3-1
				c0.9-0.1,2.8-0.2,5.7-0.2c-0.4-4.6-0.7-9.6-0.7-15c0-5.9,0.4-9.6,1.1-11.2c-3.6,0-5.9-0.1-7.1-0.4c0.1-2,0.3-4,0.8-6.2
				c0.1-0.9,0.6-2.8,1.3-5.6c2.7-0.5,7.2-0.8,13.5-0.8c2.5,0,4.9,0.1,7.1,0.4c2.1,0.3,3.8,0.6,4.9,1c1.1,0.4,1.7,0.8,1.7,1.2
				c0.1,0,0.2,1.3,0.2,3.9c0,4.1-0.4,6.8-1.1,7.9c-0.3,0.4-1.2,0.7-2.6,0.7c-2.7,0-4.4-0.2-5.1-0.5c-0.8,5.1-1.2,11.7-1.2,19.9
				c0,3.3,0.1,5.1,0.3,5.2c0.4-0.1,1.1-0.1,1.9-0.1c2.6,0,4.7,0.4,6.3,1.2c0.2,0.3,0.3,0.9,0.3,2c0,1.8-0.3,4-0.8,6.6
				s-1.2,4.3-2.2,5.2c-0.9,0.9-3.7,1.3-8.5,1.3c-11.4,0-17.8-1.1-19-3.2C567.6,94.2,567.3,92.2,567.3,89.2z M576,21.2
				c0-2,1.1-3.1,3.3-3.1c1.8,0,3.8,0.5,5.9,1.6c1.5-1.5,3.6-2.3,6.1-2.3c1.6,0,3,0.5,4.3,1.6c1.2,1.1,1.9,2.6,1.9,4.5
				c0,0.9-0.2,1.9-0.6,2.7c-0.4,0.9-0.8,1.6-1.3,2.2c-0.4,0.6-1.2,1.3-2.2,2c-1,0.8-1.8,1.3-2.3,1.6c-0.6,0.3-1.5,0.9-2.9,1.6
				c-1.4,0.8-2.3,1.3-2.6,1.5c-2.8-2.1-5.1-4.5-6.9-7.2C576.9,25.5,576,23.2,576,21.2z M606.8,75.5c0-8.2,3-15.8,8.9-22.6
				c5.9-6.8,12.6-10.3,19.9-10.3c4.5,0,8.4,1.4,11.6,4.1c3.2,2.8,4.8,6.4,4.8,10.8c0,5.2-2.1,9.6-6.4,13.3
				c-4.3,3.7-9.9,5.5-16.9,5.5c-4,0-6.8-0.6-8.4-1.9c0.1,3.5,1.3,6.3,3.7,8.3c2.4,2.1,5.2,3.1,8.3,3.1c4.1,0,7.4-1.6,9.9-4.8
				c0-0.6,0.1-1.2,0.3-1.9c3.2-2.6,6.7-3.9,10.4-3.9c0.7,0,1.3,0,1.6,0.1c4.8,2.6,7.8,6.9,8.8,12.9c-0.1,0.6-0.3,1.2-0.8,1.9
				c-0.5,0.7-1,1.2-1.5,1.7c-0.5,0.5-1.2,1-2.2,1.6c-0.9,0.6-1.7,1.1-2.2,1.4c-0.5,0.3-1.3,0.7-2.4,1.3c-1,0.6-1.6,0.9-1.8,1
				c-0.4,0-0.8-0.1-1.1-0.2c-0.3-0.1-0.6-0.3-0.8-0.5c-0.2-0.2-0.4-0.4-0.5-0.5c-0.1-0.1-0.2-0.4-0.4-0.9c-0.2-0.5-0.4-0.7-0.4-0.8
				c-5.4,3.6-11.2,5.3-17.4,5.3c-6.9,0-12.8-2.2-17.8-6.7C609.3,88.5,606.8,82.7,606.8,75.5L606.8,75.5z M623.9,62.7
				c0,2.4,1.7,3.6,5.2,3.6c2.6,0,5.1-0.6,7.5-1.9c2.4-1.2,3.6-2.8,3.6-4.6c0-1.2-0.4-2.5-1.3-3.9c-0.8-1.3-2.2-2-4-2
				c-2.3,0-4.7,0.9-7.3,2.7C625.1,58.5,623.9,60.5,623.9,62.7L623.9,62.7z M667.5,95c0.5-7.6,3-12.8,7.8-15.6
				c0.5-0.1,1.3-0.1,2.3-0.1c3.8,0,6.8,1.3,8.8,3.8c0,0.1,0,0.2,0.1,0.4c0,0.2,0.1,0.3,0.1,0.4c0,0.2-0.1,0.6-0.2,1.2
				c0.7,1.1,1.8,2,3.5,2.7c1.7,0.7,3.5,1,5.5,1c2.8,0,5-0.7,6.6-2c1.6-1.3,2.4-2.9,2.4-4.7c0-3.6-2.9-5.5-8.8-5.8
				c-2.3-0.1-4.1-0.2-5.5-0.3c-1.4-0.1-3.3-0.4-5.6-0.8c-2.4-0.4-4.3-0.9-5.8-1.6c-1.5-0.7-3.1-1.6-4.7-2.7
				c-1.6-1.1-2.8-2.5-3.5-4.4c-0.8-1.8-1.2-3.9-1.2-6.3c0-5.7,2.2-10,6.7-12.9c4.5-2.9,10-4.4,16.6-4.4c5.8,0,10.8,0.7,14.9,2
				c0.4-0.7,1-1.5,1.8-2.2c0.8-0.7,1.4-1.2,1.8-1.3c5.4,0.5,8.9,2.3,10.7,5.5c-0.4,7.6-3,12.8-7.8,15.6c-0.5,0.1-1.3,0.1-2.3,0.1
				c-3.8,0-6.8-1.3-8.8-3.8c0-0.1,0-0.2-0.1-0.4c0-0.2-0.1-0.3-0.1-0.4c0-0.2,0.1-0.6,0.2-1.2c-0.8-0.9-2.2-1.7-4.3-2.4
				c-2.1-0.7-4.2-1-6.4-1c-5.6,0-8.4,1.9-8.4,5.6c0,4.4,4,6.7,11.9,7c2.2,0.1,4,0.2,5.3,0.3c1.3,0.1,3.1,0.3,5.3,0.7
				c2.2,0.3,4,0.8,5.4,1.5c1.4,0.7,2.8,1.6,4.2,2.7c1.4,1.1,2.5,2.5,3.2,4.3c0.7,1.8,1,3.9,1,6.3c0,11.5-8.4,17.3-25.3,17.3
				c-5.7,0-10.4-0.7-14.2-2c-1.2,2.2-2,3.3-2.5,3.5C672.8,100,669.3,98.1,667.5,95L667.5,95z"/>
		</g>
		<rect x="2.5" y="0.3" class="st1" width="994.5" height="174.9"/>
	</g>
</g>
</svg>
