<?xml version="1.0" encoding="utf-8"?>
<!-- Generator: Adobe Illustrator 26.4.1, SVG Export Plug-In . SVG Version: 6.00 Build 0)  -->
<svg version="1.1" id="Layer_1" xmlns="http://www.w3.org/2000/svg" xmlns:xlink="http://www.w3.org/1999/xlink" x="0px" y="0px"
	 viewBox="0 0 1000 623" style="enable-background:new 0 0 1000 623;" xml:space="preserve">
<style type="text/css">
	.st0{fill:#334036;}
	.st1{display:none;fill:#334036;}
</style>
<g transform="translate(-.60606 .25223)">
	<g transform="translate(.24 -.1)">
		<g transform="translate(75.544 103.7)">
			<g>
				<path class="st0" d="M150,198.7c-2.9,0-5.8-0.2-8.5-0.5c-2.9-0.4-5-0.8-6.5-1.3v-64.8h5.3v26.5c1.5-2.3,3.4-4,5.8-5.1
					c2.4-1.1,4.9-1.7,7.6-1.7c3.7,0,6.9,1,9.8,3c2.8,2,5,4.8,6.6,8.3c1.5,3.6,2.3,7.6,2.3,12.1c0,6.8-1.8,12.4-5.5,16.8
					C163.1,196.5,157.5,198.7,150,198.7z M149.9,193.8c6.1,0,10.5-1.7,13.2-5.1c2.6-3.4,3.9-7.8,3.9-13.3c0-3.9-0.6-7.3-1.8-10.1
					c-1.2-2.8-2.8-4.9-4.9-6.4c-2.1-1.4-4.4-2.2-7-2.2c-3,0-5.8,0.9-8.3,2.8c-2.9,2-4.4,4.9-4.7,8.6V193l4.6,0.5
					C146.4,193.7,148.1,193.8,149.9,193.8z M200.2,198.7c-4.4,0-8.1-0.9-11.1-2.8c-3-1.9-5.3-4.4-6.9-7.7c-1.5-3.3-2.3-7-2.3-11.2
					c0-4.1,0.7-8.1,2.2-11.9c1.5-3.9,3.7-7,6.8-9.5c3-2.5,6.7-3.7,11-3.7c2.9,0,5.5,0.6,8,1.7s4.4,2.8,5.8,4.9
					c1.4,2.1,2.2,4.6,2.2,7.3c0,4.5-1.8,7.9-5.5,10.3c-3.7,2.4-8.8,3.6-15.3,3.6l-9.6-0.1c0.5,4.6,2,8.2,4.5,10.6
					c2.5,2.4,5.9,3.6,10.3,3.6c2.6,0,5.1-0.4,7.3-1.1c2.3-0.7,4.4-1.9,6.5-3.5l2.6,3.6c-2.2,1.8-4.8,3.2-7.6,4.3
					C206.3,198.1,203.3,198.7,200.2,198.7z M196.2,175c9.6,0,14.4-3.1,14.4-9.3c0-3-1-5.3-3-6.7c-2-1.5-4.5-2.2-7.4-2.2
					c-3.3,0-6,1-8.3,2.9c-2.2,1.9-3.9,4.3-5,7.1s-1.7,5.6-1.7,8.2C185.1,175,196.2,175,196.2,175z M243.6,198.7
					c-4,0-7.5-1.1-10.3-3.2c-2.9-2.1-5-4.9-6.5-8.4c-1.5-3.5-2.2-7.4-2.2-11.6c0-4.6,0.9-8.8,2.6-12.4c1.8-3.6,4.3-6.4,7.5-8.4
					c3.3-2,7.1-3,11.5-3c1.4,0,3.1,0.1,5.1,0.2c2,0.2,3.9,0.4,5.4,0.6h5.3V190c0,1.2,0.3,2.1,0.8,2.7c0.6,0.6,1.3,1,2.1,1
					c1.1,0,1.9-0.5,2.5-1.5l3.8,3.1c-0.9,1.3-1.9,2.2-2.9,2.7c-1.1,0.5-2.3,0.8-3.7,0.8c-2,0-3.8-0.7-5.4-2.2
					c-1.5-1.4-2.3-3.2-2.3-5.2c-1.4,2.4-3.2,4.3-5.5,5.5C249,198,246.4,198.7,243.6,198.7L243.6,198.7z M243.7,193.8
					c2.6,0,5-0.7,7.1-2c2.1-1.3,3.7-3.1,4.7-5.2c0.8-1.7,1.2-3.7,1.2-5.8v-23.7l-5.8-0.2l-5.1-0.2c-5.3,0-9.3,1.7-12,5.2
					c-2.7,3.4-4,7.9-4,13.5c0,5.1,1.2,9.5,3.5,13.1C235.7,192,239.2,193.8,243.7,193.8z M318.1,192.2l3.8,3.1
					c-0.9,1.3-1.9,2.2-2.9,2.7c-1.1,0.5-2.3,0.8-3.7,0.8c-2,0-3.8-0.7-5.4-2.2c-1.6-1.4-2.3-3.2-2.3-5.2c-4,4.8-8.9,7.2-14.6,7.2
					c-4.4,0-7.8-1.1-10.3-3.3c-2.5-2.2-3.8-5.5-4-10v-19.4c0-4.8-1.2-8.3-3.7-10.5l3.5-3.6c1.4,0.9,2.7,2.3,3.8,4.3
					c1.1,1.9,1.7,4,1.7,6.2v20.6c0,3.4,0.7,6.1,2.2,8c1.5,1.9,3.9,2.8,7.3,2.8c3.2,0,6-0.7,8.3-2.2c2.3-1.4,4.2-3.7,5.7-6.9l0.1-32
					h5.3l-0.1,37.4c0,1.2,0.3,2.1,0.8,2.7c0.5,0.6,1.2,1,2.1,1C316.6,193.7,317.5,193.2,318.1,192.2z M340.1,198.7
					c-4,0-6.9-1.2-8.8-3.5c-1.9-2.3-2.8-5.8-2.8-10.4v-43.5h5.3v11.5h13.8v4.9h-13.8v27.1c0,6,2.1,9,6.3,9c3.3,0,5.9-1.8,7.7-5.5
					l3.9,2.8c-1.3,2.5-3,4.4-4.8,5.7C345,198,342.7,198.7,340.1,198.7z M389.3,152.6h5.3l-0.1,32.7v22.8c0,4.6-1.2,8.4-3.6,11.2
					c-2.4,2.8-5.6,4.2-9.6,4.2c-2.5,0-4.7-0.6-6.7-1.8c-2-1.2-3.6-2.9-4.7-5.1c-1.1-2.2-1.7-4.6-1.7-7.3c0-2.5,0.5-4.7,1.4-6.6
					c0.9-1.9,2.2-3.3,3.7-4.2c-3.9-0.3-7-1.6-9.4-4c-2.3-2.4-3.5-5.4-3.5-9.2v-19.6c0-4.8-1.2-8.3-3.7-10.5l3.5-3.6
					c1.3,0.9,2.6,2.3,3.7,4.2c1.1,1.9,1.7,3.9,1.8,6.1v21.2c0,3.6,0.8,6.2,2.3,8c1.6,1.7,3.9,2.6,7.1,2.6c2.6,0,4.9-0.6,6.9-1.7
					c2-1.1,4.1-3,6.1-5.6c0.5-0.7,0.8-1.3,1-1.8c0.2-0.5,0.3-1.2,0.3-2.1C389.2,182.2,389.3,152.6,389.3,152.6z M389.2,208.4
					l0.2-17.7c-0.8,1.3-1.5,2.2-2.1,2.9c-0.6,0.7-1.4,1.4-2.3,2.1c-1.6,1.1-3.3,2.3-5.3,3.3c-2.3,1.3-4,2.7-5,4.2s-1.5,3.4-1.5,5.7
					c0,2.8,0.7,5.1,2.1,6.7c1.4,1.7,3.4,2.5,5.8,2.5c2.4,0,4.3-0.9,5.7-2.6C388.4,213.8,389.1,211.5,389.2,208.4z M448.8,198.7
					c-4,0-7.4-1-10.3-3.1c-2.9-2.1-5-4.9-6.5-8.4c-1.5-3.5-2.2-7.4-2.2-11.6c0-4.6,0.9-8.7,2.6-12.2c1.8-3.6,4.3-6.4,7.5-8.4
					c3.2-2,7.1-3,11.4-3c1.3,0,3,0.1,5.1,0.2c2,0.2,3.9,0.4,5.4,0.6V132h5.3l-0.1,58c0,1.2,0.3,2.1,0.8,2.7c0.5,0.6,1.2,1,2.1,1
					c1.1,0,1.9-0.5,2.5-1.5l3.8,3.1c-0.9,1.3-1.9,2.2-2.9,2.7c-1.1,0.5-2.3,0.8-3.7,0.8c-2,0-3.8-0.7-5.4-2.2
					c-1.6-1.4-2.3-3.2-2.3-5.2c-1.4,2.4-3.2,4.3-5.5,5.5C454.2,198,451.6,198.7,448.8,198.7L448.8,198.7z M449.1,193.8
					c2.6,0,4.9-0.6,6.9-1.9c2-1.3,3.6-3,4.7-5.3c0.8-1.7,1.2-3.6,1.2-5.8v-23.3l-1.8-0.3c-2.7-0.4-5-0.6-6.8-0.6
					c-6.4,0-11.1,1.6-13.9,4.9c-2.8,3.3-4.3,7.8-4.3,13.4c0,5.4,1.2,9.9,3.7,13.5C441.3,192,444.7,193.8,449.1,193.8z M489.3,190.2
					c0,0.8,0.3,1.5,0.8,2.1c0.5,0.6,1.2,0.9,2,0.9c1.2,0,2-0.5,2.5-1.5l3.9,3c-0.5,1-1.3,1.9-2.5,2.6c-1.2,0.7-2.5,1-3.9,1
					c-2.3,0-4.3-0.8-5.8-2.3c-1.5-1.5-2.3-3.5-2.3-5.9v-37.5h5.3L489.3,190.2L489.3,190.2z M486.4,146.7c-1,0-1.9-0.4-2.6-1.1
					c-0.7-0.7-1.1-1.6-1.1-2.7c0-1.1,0.4-2,1.1-2.8c0.7-0.7,1.6-1.1,2.6-1.1c1.1,0,1.9,0.4,2.7,1.1c0.7,0.8,1.1,1.7,1.1,2.8
					c0,1-0.4,1.9-1.1,2.7C488.3,146.3,487.4,146.7,486.4,146.7z M520.7,198.7c-4,0-7.5-1.1-10.4-3.2s-5-4.9-6.5-8.4
					s-2.2-7.4-2.2-11.6c0-4.6,0.9-8.8,2.6-12.4c1.8-3.6,4.3-6.4,7.5-8.4c3.3-2,7.1-3,11.5-3c1.3,0,3,0.1,5.1,0.2
					c2,0.2,3.9,0.4,5.4,0.6h5.3V190c0,1.2,0.3,2.1,0.8,2.7c0.6,0.6,1.3,1,2.1,1c1.1,0,1.9-0.5,2.5-1.5l3.8,3.1
					c-0.9,1.3-1.9,2.2-2.9,2.7c-1.1,0.5-2.3,0.8-3.7,0.8c-2,0-3.8-0.7-5.4-2.2c-1.5-1.4-2.3-3.2-2.3-5.2c-1.4,2.4-3.2,4.3-5.5,5.5
					C526.1,198,523.5,198.7,520.7,198.7L520.7,198.7z M520.7,193.8c2.6,0,5-0.7,7.1-2c2.1-1.3,3.7-3.1,4.7-5.2
					c0.8-1.7,1.2-3.7,1.2-5.8v-23.7l-5.8-0.2l-5.1-0.2c-5.3,0-9.3,1.7-12,5.2c-2.7,3.4-4,7.9-4,13.5c0,5.1,1.2,9.5,3.5,13.1
					C512.8,192,516.2,193.8,520.7,193.8z M573.4,151.6c1.8,0,3.5,0.3,5.3,0.8v5.1c-1.7-0.4-3.4-0.6-5.1-0.6c-3,0-5.4,0.8-7.3,2.3
					c-1.9,1.5-3.5,3.6-5,6.4v32.2H556v-31.7c0-4.8-1.2-8.3-3.7-10.5l3.5-3.6c1.1,0.7,2,1.7,3,3c0.9,1.3,1.6,2.8,2,4.4
					c1.6-2.8,3.3-4.7,4.9-5.7C567.8,152.3,570.3,151.6,573.4,151.6L573.4,151.6z M592.6,190.2c0,0.8,0.3,1.5,0.8,2.1
					c0.5,0.6,1.2,0.9,2,0.9c1.2,0,2-0.5,2.5-1.5l3.9,3c-0.5,1-1.3,1.9-2.5,2.6c-1.2,0.7-2.5,1-3.9,1c-2.3,0-4.3-0.8-5.8-2.3
					c-1.5-1.5-2.3-3.5-2.3-5.9v-37.5h5.3L592.6,190.2L592.6,190.2z M589.7,146.7c-1,0-1.9-0.4-2.6-1.1c-0.7-0.7-1.1-1.6-1.1-2.7
					c0-1.1,0.4-2,1.1-2.8c0.7-0.7,1.6-1.1,2.6-1.1c1.1,0,1.9,0.4,2.7,1.1c0.7,0.8,1.1,1.7,1.1,2.8c0,1-0.4,1.9-1.1,2.7
					C591.6,146.3,590.7,146.7,589.7,146.7z M625.3,198.7c-4.4,0-8.1-0.9-11.1-2.8c-3-1.9-5.3-4.4-6.9-7.7c-1.6-3.3-2.3-7-2.3-11.2
					c0-4.1,0.7-8.1,2.2-11.9c1.5-3.9,3.7-7,6.8-9.5c3-2.5,6.7-3.7,11-3.7c2.9,0,5.5,0.6,8,1.7c2.5,1.1,4.4,2.8,5.8,4.9
					c1.4,2.1,2.1,4.6,2.1,7.3c0,4.5-1.8,7.9-5.5,10.3c-3.7,2.4-8.8,3.6-15.3,3.6l-9.6-0.1c0.5,4.6,2,8.2,4.5,10.6
					c2.5,2.4,5.9,3.6,10.3,3.6c2.6,0,5.1-0.4,7.3-1.1c2.2-0.7,4.4-1.9,6.5-3.5l2.6,3.6c-2.2,1.8-4.7,3.2-7.6,4.3
					C631.4,198.1,628.4,198.7,625.3,198.7L625.3,198.7z M621.3,175c9.6,0,14.4-3.1,14.4-9.3c0-3-1-5.3-3-6.7c-2-1.5-4.5-2.2-7.4-2.2
					c-3.3,0-6,1-8.3,2.9c-2.3,1.9-3.9,4.3-5.1,7.1s-1.7,5.6-1.7,8.2L621.3,175L621.3,175z M664.1,198.9c-5.9,0-11.4-2.4-16.5-7.1
					l2.9-3.6c2.2,1.9,4.4,3.3,6.6,4.3c2.2,1,4.6,1.5,7.1,1.5c3.2,0,5.6-0.8,7.4-2.3c1.8-1.5,2.7-3.6,2.7-6.3c0-1.7-0.4-3.1-1.2-4.1
					c-0.8-1-1.8-1.9-3.2-2.6c-1.3-0.7-3.7-1.7-7.1-3.2c-3.1-1.3-5.5-2.5-7.2-3.4c-1.7-1-3-2.2-4-3.6c-1-1.4-1.5-3.2-1.5-5.4
					c0-3.6,1.2-6.4,3.7-8.6c2.5-2.1,5.7-3.2,9.8-3.2c2.1,0,4.2,0.3,6.3,0.9c2.1,0.6,3.9,1.5,5.3,2.6l-2.2,3.9
					c-2.7-1.7-5.7-2.5-9.1-2.5c-2.7,0-4.8,0.5-6.2,1.6c-1.5,1.1-2.2,2.6-2.2,4.6c0,1.5,0.4,2.7,1.2,3.7c0.8,1,1.8,1.8,3.1,2.4
					c1.3,0.6,3.4,1.6,6.3,2.8c3.3,1.4,5.9,2.6,7.8,3.7c1.8,1.1,3.3,2.5,4.3,4.1c1,1.6,1.5,3.6,1.5,5.9c0,4.2-1.4,7.5-4.3,10
					C672.5,197.6,668.7,198.9,664.1,198.9L664.1,198.9z"/>
			</g>
		</g>
		<path class="st0" d="M401.9,232.9V128h-293v302.2h293V325.3h6.2v111.3H102.7v-315h305.5v111.3L401.9,232.9z"/>
		<rect x="1" y="-0.2" class="st1" width="881.4" height="567.9"/>
	</g>
</g>
</svg>
